<svg aria-hidden="true" data-prefix="fas" data-icon="align-center" role="img" xmlns="http://www.w3.org/2000/svg" viewBox="0 0 448 512" class="svg-inline--fa fa-align-center fa-w-14 fa-7x"><path fill="currentColor" d="M352 44v40c0 8.837-7.163 16-16 16H112c-8.837 0-16-7.163-16-16V44c0-8.837 7.163-16 16-16h224c8.837 0 16 7.163 16 16zM16 228h416c8.837 0 16-7.163 16-16v-40c0-8.837-7.163-16-16-16H16c-8.837 0-16 7.163-16 16v40c0 8.837 7.163 16 16 16zm0 256h416c8.837 0 16-7.163 16-16v-40c0-8.837-7.163-16-16-16H16c-8.837 0-16 7.163-16 16v40c0 8.837 7.163 16 16 16zm320-200H112c-8.837 0-16 7.163-16 16v40c0 8.837 7.163 16 16 16h224c8.837 0 16-7.163 16-16v-40c0-8.837-7.163-16-16-16z" class=""></path></svg>