<svg aria-hidden="true" data-prefix="fas" data-icon="align-right" role="img" xmlns="http://www.w3.org/2000/svg" viewBox="0 0 448 512" class="svg-inline--fa fa-align-right fa-w-14 fa-7x"><path fill="currentColor" d="M160 84V44c0-8.837 7.163-16 16-16h256c8.837 0 16 7.163 16 16v40c0 8.837-7.163 16-16 16H176c-8.837 0-16-7.163-16-16zM16 228h416c8.837 0 16-7.163 16-16v-40c0-8.837-7.163-16-16-16H16c-8.837 0-16 7.163-16 16v40c0 8.837 7.163 16 16 16zm0 256h416c8.837 0 16-7.163 16-16v-40c0-8.837-7.163-16-16-16H16c-8.837 0-16 7.163-16 16v40c0 8.837 7.163 16 16 16zm160-128h256c8.837 0 16-7.163 16-16v-40c0-8.837-7.163-16-16-16H176c-8.837 0-16 7.163-16 16v40c0 8.837 7.163 16 16 16z" class=""></path></svg>