<svg aria-hidden="true" data-prefix="fal" data-icon="align-justify" role="img" xmlns="http://www.w3.org/2000/svg" viewBox="0 0 448 512" class="svg-inline--fa fa-align-justify fa-w-14 fa-7x"><path fill="currentColor" d="M0 76V52a6 6 0 0 1 6-6h436a6 6 0 0 1 6 6v24a6 6 0 0 1-6 6H6a6 6 0 0 1-6-6zm6 134h436a6 6 0 0 0 6-6v-24a6 6 0 0 0-6-6H6a6 6 0 0 0-6 6v24a6 6 0 0 0 6 6zm0 256h436a6 6 0 0 0 6-6v-24a6 6 0 0 0-6-6H6a6 6 0 0 0-6 6v24a6 6 0 0 0 6 6zm0-128h436a6 6 0 0 0 6-6v-24a6 6 0 0 0-6-6H6a6 6 0 0 0-6 6v24a6 6 0 0 0 6 6z" class=""></path></svg>