<svg aria-hidden="true" data-prefix="far" data-icon="align-justify" role="img" xmlns="http://www.w3.org/2000/svg" viewBox="0 0 448 512" class="svg-inline--fa fa-align-justify fa-w-14 fa-7x"><path fill="currentColor" d="M0 80V48c0-6.627 5.373-12 12-12h424c6.627 0 12 5.373 12 12v32c0 6.627-5.373 12-12 12H12C5.373 92 0 86.627 0 80zm12 140h424c6.627 0 12-5.373 12-12v-32c0-6.627-5.373-12-12-12H12c-6.627 0-12 5.373-12 12v32c0 6.627 5.373 12 12 12zm0 256h424c6.627 0 12-5.373 12-12v-32c0-6.627-5.373-12-12-12H12c-6.627 0-12 5.373-12 12v32c0 6.627 5.373 12 12 12zm0-128h424c6.627 0 12-5.373 12-12v-32c0-6.627-5.373-12-12-12H12c-6.627 0-12 5.373-12 12v32c0 6.627 5.373 12 12 12z" class=""></path></svg>