<svg aria-hidden="true" data-prefix="fal" data-icon="cross" role="img" xmlns="http://www.w3.org/2000/svg" viewBox="0 0 384 512" class="svg-inline--fa fa-cross fa-w-12 fa-7x"><path fill="currentColor" d="M352 128h-96V32c0-17.67-14.33-32-32-32h-64c-17.67 0-32 14.33-32 32v96H32c-17.67 0-32 14.33-32 32v64c0 17.67 14.33 32 32 32h96v224c0 17.67 14.33 32 32 32h64c17.67 0 32-14.33 32-32V256h96c17.67 0 32-14.33 32-32v-64c0-17.67-14.33-32-32-32zm0 96H224v256h-64V224H32v-64h128V32h64v128h128v64z" class=""></path></svg>