<svg aria-hidden="true" data-prefix="far" data-icon="grip-horizontal" role="img" xmlns="http://www.w3.org/2000/svg" viewBox="0 0 512 512" class="svg-inline--fa fa-grip-horizontal fa-w-16 fa-7x"><path fill="currentColor" d="M488 96h-96c-13.25 0-24 10.74-24 24v96c0 13.25 10.75 24 24 24h96c13.25 0 24-10.75 24-24v-96c0-13.26-10.75-24-24-24zm-24 96h-48v-48h48v48zm24 80h-96c-13.25 0-24 10.74-24 24v96c0 13.25 10.75 24 24 24h96c13.25 0 24-10.75 24-24v-96c0-13.26-10.75-24-24-24zm-24 96h-48v-48h48v48zM120 96H24c-13.25 0-24 10.74-24 24v96c0 13.25 10.75 24 24 24h96c13.25 0 24-10.75 24-24v-96c0-13.26-10.75-24-24-24zm-24 96H48v-48h48v48zm24 80H24c-13.25 0-24 10.74-24 24v96c0 13.25 10.75 24 24 24h96c13.25 0 24-10.75 24-24v-96c0-13.26-10.75-24-24-24zm-24 96H48v-48h48v48zM304 96h-96c-13.25 0-24 10.74-24 24v96c0 13.25 10.75 24 24 24h96c13.25 0 24-10.75 24-24v-96c0-13.26-10.75-24-24-24zm-24 96h-48v-48h48v48zm24 80h-96c-13.25 0-24 10.74-24 24v96c0 13.25 10.75 24 24 24h96c13.25 0 24-10.75 24-24v-96c0-13.26-10.75-24-24-24zm-24 96h-48v-48h48v48z" class=""></path></svg>