<svg aria-hidden="true" data-prefix="fal" data-icon="signal-alt-3" role="img" xmlns="http://www.w3.org/2000/svg" viewBox="0 0 640 512" class="svg-inline--fa fa-signal-alt-3 fa-w-20 fa-7x"><path fill="currentColor" d="M416 160v320h-32V160h32M256 288v192h-32V288h32M96 416v64H64v-64h32m320-288h-32c-17.67 0-32 14.33-32 32v320c0 17.67 14.33 32 32 32h32c17.67 0 32-14.33 32-32V160c0-17.67-14.33-32-32-32zM256 256h-32c-17.67 0-32 14.33-32 32v192c0 17.67 14.33 32 32 32h32c17.67 0 32-14.33 32-32V288c0-17.67-14.33-32-32-32zM96 384H64c-17.67 0-32 14.33-32 32v64c0 17.67 14.33 32 32 32h32c17.67 0 32-14.33 32-32v-64c0-17.67-14.33-32-32-32z" class=""></path></svg>