<svg aria-hidden="true" data-prefix="fal" data-icon="terminal" role="img" xmlns="http://www.w3.org/2000/svg" viewBox="0 0 640 512" class="svg-inline--fa fa-terminal fa-w-20 fa-7x"><path fill="currentColor" d="M34.495 36.465l211.051 211.05c4.686 4.686 4.686 12.284 0 16.971L34.495 475.535c-4.686 4.686-12.284 4.686-16.97 0l-7.071-7.07c-4.686-4.686-4.686-12.284 0-16.971L205.947 256 10.454 60.506c-4.686-4.686-4.686-12.284 0-16.971l7.071-7.07c4.686-4.687 12.284-4.687 16.97 0zM640 468v-10c0-6.627-5.373-12-12-12H300c-6.627 0-12 5.373-12 12v10c0 6.627 5.373 12 12 12h328c6.627 0 12-5.373 12-12z" class=""></path></svg>